<?xml version="1.0" encoding="UTF-8"?>
<svg xmlns="http://www.w3.org/2000/svg" version="1.1" xmlns:xlink="http://www.w3.org/1999/xlink" viewBox="0 0 85 107">
  <defs>
    <style>
      .cls-1 {
        fill: #fff;
      }

      .cls-2 {
        fill: url(#linear-gradient);
      }
    </style>
    <linearGradient id="linear-gradient" x1="17.7" y1="11" x2="64.4" y2="33.1" gradientTransform="translate(0 108) scale(1 -1)" gradientUnits="userSpaceOnUse">
      <stop offset="0" stop-color="#d83333"/>
      <stop offset="1" stop-color="#f041ff"/>
    </linearGradient>
  </defs>
  <!-- Generator: Adobe Illustrator 28.7.1, SVG Export Plug-In . SVG Version: 1.2.0 Build 142)  -->
  <g>
    <g id="Layer_1">
      <path class="cls-1" d="M27.6,91.1c-4.8-4.4-6.2-13.7-4.2-20.4,3.5,4.2,8.3,5.6,13.3,6.3,7.7,1.2,15.3.7,22.5-2.8.8-.4,1.6-.9,2.5-1.5.7,2,.8,3.9.6,5.9-.6,4.9-3,8.7-6.9,11.5-1.5,1.1-3.2,2.2-4.8,3.3-4.9,3.3-6.2,7.2-4.4,12.9,0,.1,0,.3.2.6-2.5-1.1-4.3-2.8-5.7-4.9-1.5-2.3-2.2-4.8-2.2-7.5,0-1.3,0-2.7-.2-4-.4-3.2-1.9-4.6-4.7-4.7-2.9,0-5.2,1.7-5.8,4.5,0,.2-.1.4-.2.7h0s0,0,0,0Z"/>
      <path class="cls-2" d="M27.6,91.1c-4.8-4.4-6.2-13.7-4.2-20.4,3.5,4.2,8.3,5.6,13.3,6.3,7.7,1.2,15.3.7,22.5-2.8.8-.4,1.6-.9,2.5-1.5.7,2,.8,3.9.6,5.9-.6,4.9-3,8.7-6.9,11.5-1.5,1.1-3.2,2.2-4.8,3.3-4.9,3.3-6.2,7.2-4.4,12.9,0,.1,0,.3.2.6-2.5-1.1-4.3-2.8-5.7-4.9-1.5-2.3-2.2-4.8-2.2-7.5,0-1.3,0-2.7-.2-4-.4-3.2-1.9-4.6-4.7-4.7-2.9,0-5.2,1.7-5.8,4.5,0,.2-.1.4-.2.7h0s0,0,0,0Z"/>
      <path d="M0,69.6s14.3-7,28.7-7l10.8-33.5c.4-1.6,1.6-2.7,2.9-2.7s2.5,1.1,2.9,2.7l10.8,33.5c17,0,28.7,7,28.7,7,0,0-24.3-66.2-24.4-66.4-.7-2-1.9-3.2-3.5-3.2h-29.2c-1.6,0-2.7,1.3-3.5,3.2,0,.1-24.4,66.4-24.4,66.4h0Z"/>
    </g>
  </g>
</svg>