<?xml version="1.0" encoding="UTF-8"?>
<svg xmlns="http://www.w3.org/2000/svg" version="1.1" viewBox="0 0 2222 2500">
  <defs>
    <style>
      .cls-1 {
        fill: #fff;
      }

      .cls-2 {
        fill: #231f20;
      }
    </style>
  </defs>
  <!-- Generator: Adobe Illustrator 28.7.1, SVG Export Plug-In . SVG Version: 1.2.0 Build 142)  -->
  <g>
    <g id="Layer_1">
      <path class="cls-2" d="M2212.1,740.1c0-41.6-8.9-78.4-26.9-110-17.7-31-44.2-57.1-79.7-77.6-293.2-169.1-586.7-337.6-879.8-506.9C1146.7,0,1070.1,1.7,991.6,47.9c-116.7,68.8-701,403.6-875.1,504.4-71.7,41.5-106.6,105-106.6,187.6-.1,340,0,680-.1,1020,0,40.7,8.5,76.8,25.7,107.9,17.7,32,44.5,58.7,80.9,79.7,174.1,100.9,758.5,435.6,875.2,504.4,78.5,46.3,155.1,48,234.1,2.3,293.1-169.2,586.6-337.8,879.9-506.9,36.3-21,63.2-47.8,80.9-79.7,17.2-31.1,25.7-67.2,25.7-107.9,0,0,0-679.8-.1-1019.8"/>
      <path class="cls-2" d="M1114.4,1246.7L35.5,1867.9c17.7,32,44.5,58.7,80.9,79.7,174.1,100.9,758.5,435.6,875.2,504.4,78.5,46.3,155.1,48,234.1,2.3,293.1-169.2,586.6-337.8,879.9-506.9,36.3-21,63.2-47.8,80.9-79.7l-1072.1-621.1Z"/>
      <path class="cls-2" d="M2212.1,740.1c0-41.6-8.9-78.4-26.9-110l-1070.8,616.6,1072.1,621.1c17.2-31.1,25.7-67.2,25.7-107.9,0,0,0-679.8-.1-1019.8"/>
      <g>
        <path class="cls-1" d="M1749.6,1014.5v116.1h116.1v-116.1h58.1v116.1h116.1v58.1h-116.1v116.1h116.1v58.1h-116.1v116.1h-58.1v-116.1h-116.1v116.1h-58.1v-116.1h-116.1v-58.1h116.1v-116.1h-116.1v-58.1h116.1v-116.1h58.1ZM1865.7,1188.6h-116.1v116.1h116.1v-116.1Z"/>
        <path class="cls-1" d="M1116.7,431.3c302.9,0,567.3,164.5,708.9,409l-1.4-2.4-356.3,205.2c-70.2-118.9-198.9-199.1-346.5-200.7h-4.7c-225.1,0-407.6,182.5-407.6,407.6,0,71,18.5,140.7,53.8,202.3,70.3,122.7,202.4,205.4,353.9,205.4s285.3-83.8,355.2-207.8l-1.7,3,355.8,206.1c-140.1,242.4-400.9,406.4-700.2,409.6h-9.1c-303.8,0-569-165.4-710.2-411.2-69-120-108.4-259.1-108.4-407.4,0-452.1,366.5-818.7,818.7-818.7h0Z"/>
      </g>
    </g>
  </g>
</svg>