<?xml version="1.0" encoding="UTF-8"?>
<svg xmlns="http://www.w3.org/2000/svg" version="1.1" viewBox="0 0 1850 2500">
  <defs>
    <style>
      .cls-1 {
        fill: #231f20;
      }
    </style>
  </defs>
  <!-- Generator: Adobe Illustrator 28.7.1, SVG Export Plug-In . SVG Version: 1.2.0 Build 142)  -->
  <g>
    <g id="Layer_1">
      <path class="cls-1" d="M596.5,1932.6s-95.4,55.5,67.9,74.2c197.8,22.6,298.8,19.3,516.7-21.9,0,0,57.3,35.9,137.3,67-488.5,209.4-1105.6-12.1-721.9-119.3M536.8,1659.4s-107,79.2,56.4,96.1c211.2,21.8,378.1,23.6,666.7-32,0,0,39.9,40.5,102.7,62.6-590.7,172.7-1248.5,13.6-825.8-126.7"/>
      <path class="cls-1" d="M1040,1195.9c120.4,138.6-31.6,263.3-31.6,263.3,0,0,305.6-157.8,165.3-355.4-131.1-184.2-231.6-275.8,312.6-591.5,0,0-854.3,213.4-446.3,683.5"/>
      <path class="cls-1" d="M1686.2,2134.7s70.6,58.1-77.7,103.1c-282,85.4-1173.6,111.2-1421.3,3.4-89-38.7,77.9-92.5,130.5-103.8,54.8-11.9,86.1-9.7,86.1-9.7-99-69.8-640.1,137-274.8,196.2,996,161.5,1815.7-72.7,1557.3-189.3M642.3,1376.3s-453.5,107.7-160.6,146.8c123.7,16.6,370.3,12.8,599.9-6.4,187.7-15.8,376.2-49.5,376.2-49.5,0,0-66.2,28.3-114.1,61-460.6,121.1-1350.3,64.8-1094.2-59.1,216.6-104.7,392.8-92.8,392.8-92.8M1456,1831.1c468.2-243.3,251.7-477.1,100.6-445.6-37,7.7-53.5,14.4-53.5,14.4,0,0,13.7-21.5,40-30.9,298.9-105.1,528.8,309.9-96.5,474.3,0,0,7.2-6.5,9.4-12.3"/>
      <path class="cls-1" d="M1173.7,2.7s259.3,259.4-245.9,658.2c-405.1,320-92.4,502.4-.2,710.8-236.5-213.4-410-401.2-293.6-576C804.9,539.1,1278.3,414.7,1173.7,2.7"/>
      <path class="cls-1" d="M688.4,2490.4c449.4,28.8,1139.5-16,1155.9-228.6,0,0-31.4,80.6-371.4,144.6-383.6,72.2-856.7,63.8-1137.3,17.5,0,0,57.4,47.5,352.8,66.5"/>
    </g>
  </g>
</svg>